 <svg  version="1.0" xmlns="http://www.w3.org/2000/svg"  width="263.000000pt" height="107.000000pt" viewBox="0 0 263.000000 107.000000"  preserveAspectRatio="xMidYMid meet">  <g transform="translate(0.000000,107.000000) scale(0.100000,-0.100000)" fill="#0e61cd" stroke="none"> <path d="M356 874 c-47 -15 -77 -31 -183 -101 -50 -33 -53 -37 -53 -76 0 -77 37 -223 78 -311 23 -47 42 -86 44 -86 2 0 3 57 3 128 1 153 19 227 66 266 78 66 186 4 261 -149 18 -36 38 -65 44 -65 20 0 35 90 42 241 7 134 6 142 -13 152 -33 18 -232 19 -289 1z m229 -14 c11 -4 25 -5 31 -3 6 2 17 -4 25 -14 12 -15 12 -16 -1 -8 -13 7 -13 6 -2 -7 10 -12 9 -37 -4 -129 -9 -63 -16 -124 -16 -136 0 -13 -6 -23 -14 -23 -8 0 -14 8 -14 17 0 9 -12 30 -27 46 -16 17 -22 27 -16 23 8 -4 6 4 -4 22 -26 45 -106 92 -163 96 -45 2 -51 0 -87 -38 -21 -23 -40 -40 -43 -39 -3 1 -5 -8 -6 -20 0 -12 -6 -51 -13 -87 -7 -36 -12 -80 -11 -98 1 -38 -18 -40 -31 -3 -7 16 -6 20 4 15 7 -5 6 0 -3 10 -8 10 -15 23 -17 30 -1 6 -7 29 -13 51 -16 65 -22 175 -8 175 6 0 20 7 30 17 15 13 18 14 18 2 0 -8 -5 -20 -12 -27 -8 -8 -9 -12 -1 -12 6 0 16 15 22 33 9 25 25 40 74 66 43 23 72 32 90 29 16 -3 25 -1 24 6 -4 21 133 26 188 6z"/> <path d="M237 775 c-6 -15 10 -32 20 -21 4 3 1 6 -5 6 -6 0 -9 7 -6 15 4 8 4 15 1 15 -3 0 -7 -7 -10 -15z"/> <path d="M713 793 c5 -32 10 -123 11 -203 1 -198 -22 -273 -91 -294 -38 -12 -93 50 -161 183 -62 119 -83 148 -101 137 -26 -16 -57 -169 -64 -319 l-4 -78 54 -48 c30 -26 74 -58 98 -71 l43 -24 57 35 c126 75 232 222 284 391 18 61 46 227 39 232 -30 22 -170 116 -172 116 -2 0 1 -26 7 -57z m70 -30 c5 -7 12 -11 18 -8 5 4 9 -1 9 -9 0 -10 6 -13 17 -9 11 4 14 3 9 -5 -4 -7 -2 -12 4 -12 8 0 10 -13 6 -42 -4 -24 -7 -56 -8 -71 -1 -19 -6 -26 -15 -23 -10 4 -11 1 -4 -13 10 -19 4 -61 -9 -61 -4 0 -7 -6 -7 -12 2 -27 -16 -88 -26 -88 -6 0 -7 -3 -4 -6 9 -10 -12 -46 -23 -39 -6 3 -7 -1 -4 -9 4 -10 1 -16 -7 -16 -7 0 -10 -3 -6 -6 8 -9 -16 -33 -27 -26 -5 3 -7 -2 -3 -11 6 -17 -15 -41 -27 -30 -4 4 -4 0 0 -10 3 -9 2 -17 -4 -17 -6 0 -12 4 -14 10 -2 6 -8 6 -18 0 -13 -8 -12 -10 3 -10 9 0 17 -4 17 -10 0 -5 -8 -10 -18 -10 -9 0 -22 -10 -27 -22 -6 -13 -21 -28 -33 -34 -17 -8 -20 -13 -10 -17 9 -4 7 -6 -4 -6 -10 -1 -18 4 -18 11 0 6 -6 3 -14 -7 -8 -11 -12 -24 -9 -29 4 -5 0 -6 -7 -1 -7 4 -16 2 -21 -6 -6 -10 -9 -11 -9 -1 0 6 -9 12 -20 12 -17 0 -19 3 -10 19 5 11 9 30 9 43 -1 19 -3 17 -8 -7 -4 -18 -14 -31 -25 -33 -14 -3 -17 0 -13 12 4 10 1 16 -8 16 -9 0 -15 10 -16 23 0 21 -1 21 -11 -3 -11 -24 -12 -24 -18 15 -4 23 -8 30 -9 16 -1 -20 -3 -21 -16 -11 -23 19 -19 116 11 240 15 60 30 107 35 104 4 -2 26 -38 49 -79 23 -41 45 -77 51 -80 5 -4 9 -15 9 -26 0 -10 5 -19 11 -19 5 0 7 -5 4 -10 -4 -6 -1 -9 6 -8 7 2 18 -8 25 -21 17 -33 31 -40 77 -36 49 3 79 32 105 103 17 45 20 75 18 216 -1 106 2 163 9 161 5 -1 7 0 2 3 -4 2 -12 13 -18 24 -10 18 -9 19 13 7 13 -6 27 -18 31 -26z"/> <path d="M585 220 c-3 -5 -1 -10 4 -10 6 0 11 5 11 10 0 6 -2 10 -4 10 -3 0 -8 -4 -11 -10z"/> <path d="M410 211 c0 -5 5 -13 10 -16 6 -3 10 -2 10 4 0 5 -4 13 -10 16 -5 3 -10 2 -10 -4z"/> <path d="M551 196 c-9 -11 -9 -16 1 -22 7 -4 10 -4 6 1 -4 4 -3 14 3 22 6 7 9 13 6 13 -2 0 -10 -6 -16 -14z"/> <path d="M498 183 c7 -3 16 -2 19 1 4 3 -2 6 -13 5 -11 0 -14 -3 -6 -6z"/> <path d="M1080 599 l0 -109 25 0 c25 0 26 1 23 63 -2 43 -7 61 -15 60 -9 -2 -13 8 -12 30 1 19 3 25 6 13 4 -15 7 -16 14 -5 7 11 9 11 9 1 0 -8 5 -10 13 -6 9 5 9 4 0 -6 -9 -9 -3 -28 25 -82 33 -63 39 -69 65 -66 l29 3 0 105 0 105 -26 1 c-25 1 -26 0 -26 -65 l0 -66 -38 65 c-31 52 -43 65 -65 67 l-27 2 0 -110z m151 -27 c-6 -2 -11 -8 -11 -13 0 -6 5 -7 10 -4 6 3 10 2 10 -4 0 -5 -4 -13 -10 -16 -5 -3 -10 -1 -10 4 0 6 -8 11 -17 11 -14 0 -13 3 5 16 12 8 23 23 23 32 1 13 2 13 6 -3 3 -10 0 -21 -6 -23z"/> <path d="M1387 616 c-20 -50 -39 -99 -43 -108 -5 -15 0 -18 24 -18 22 0 32 6 37 20 5 15 15 20 45 20 30 0 40 -5 45 -20 5 -14 15 -20 37 -20 24 0 29 3 24 18 -4 9 -23 58 -42 107 -33 83 -38 90 -64 91 -26 1 -30 -4 -63 -90z m78 53 c-4 -5 -1 -9 4 -9 6 0 11 -5 11 -11 0 -8 -4 -8 -14 0 -12 10 -19 8 -37 -10 -17 -17 -21 -18 -16 -5 4 10 7 20 7 22 0 2 7 4 15 4 8 0 14 3 14 8 -3 16 2 23 11 17 6 -4 8 -11 5 -16z m2 -64 c11 -34 10 -35 -16 -35 -27 0 -28 1 -17 35 6 19 14 35 17 35 3 0 10 -16 16 -35z m-57 -38 c0 -14 -6 -24 -14 -24 -11 0 -12 5 -3 24 5 13 12 23 14 23 1 0 3 -10 3 -23z m104 -13 c5 -13 4 -14 -7 -6 -8 7 -18 8 -22 4 -5 -4 -5 -1 -1 6 10 17 23 15 30 -4z"/> <path d="M1605 688 c4 -13 21 -62 38 -110 30 -86 32 -88 63 -88 31 0 32 2 64 93 18 50 37 97 42 104 11 14 1 20 -30 19 -20 -1 -27 -12 -48 -70 -26 -76 -29 -90 -14 -81 5 3 7 0 4 -9 -3 -8 -13 -17 -21 -20 -12 -5 -13 -3 -5 7 8 9 4 34 -17 92 -25 72 -30 80 -55 83 -25 3 -27 1 -21 -20z m156 -61 c-10 -9 -11 -8 -5 6 3 10 9 15 12 12 3 -3 0 -11 -7 -18z"/> <path d="M1894 606 c-21 -55 -40 -104 -42 -108 -2 -5 11 -8 28 -8 23 0 33 5 37 20 4 16 14 20 45 20 31 0 41 -4 45 -20 4 -14 14 -20 34 -20 16 0 29 3 29 8 0 4 -18 52 -39 107 -37 93 -42 100 -68 101 -28 1 -31 -3 -69 -100z m96 40 c0 -6 -6 -3 -14 6 -12 16 -14 16 -31 0 -19 -17 -19 -17 -1 5 15 18 22 20 33 12 7 -6 13 -17 13 -23z m-13 -41 c11 -35 11 -35 -19 -35 -19 0 -27 -4 -22 -12 4 -7 3 -8 -4 -4 -7 4 -12 2 -12 -4 0 -6 -4 -8 -10 -5 -5 3 -10 1 -10 -6 0 -7 -2 -10 -5 -7 -8 8 6 39 15 33 11 -7 40 35 40 57 0 30 16 20 27 -17z m48 -63 c-8 -8 -25 10 -19 20 4 6 9 5 15 -3 4 -7 6 -15 4 -17z"/> <path d="M2150 599 l0 -109 85 0 c82 0 85 1 82 22 -4 20 -9 22 -61 19 l-57 -3 2 88 2 87 -27 3 -26 3 0 -110z"/> <path d="M2454 696 c-2 -6 -19 -53 -39 -104 -19 -52 -35 -96 -35 -98 0 -2 13 -4 29 -4 20 0 30 6 34 20 4 16 14 20 45 20 32 0 42 -4 47 -20 5 -14 15 -20 37 -20 25 0 29 3 23 18 -4 9 -23 58 -42 108 -33 87 -36 91 -65 91 -16 0 -32 -5 -34 -11z m51 -24 c-2 -3 2 -14 10 -26 8 -11 15 -25 15 -31 -1 -5 -8 2 -16 18 -18 33 -28 34 -48 5 -9 -12 -16 -18 -16 -12 0 18 29 51 44 51 9 0 14 -2 11 -5z m-1 -74 c6 -25 3 -28 -18 -28 -23 0 -24 2 -13 35 11 38 21 36 31 -7z m-57 -15 c-4 -3 -3 -11 2 -17 6 -7 0 -18 -16 -30 l-25 -18 13 23 c7 13 12 30 11 37 -2 6 3 12 9 12 7 0 9 -3 6 -7z m100 -22 c0 -10 -7 -17 -13 -14 -7 3 -10 11 -7 19 8 20 22 17 20 -5z"/> <path d="M1800 440 c0 -5 5 -10 11 -10 5 0 7 5 4 10 -3 6 -8 10 -11 10 -2 0 -4 -4 -4 -10z"/> <path d="M1518 433 c7 -3 16 -2 19 1 4 3 -2 6 -13 5 -11 0 -14 -3 -6 -6z"/> <path d="M1718 433 c7 -3 16 -2 19 1 4 3 -2 6 -13 5 -11 0 -14 -3 -6 -6z"/> <path d="M1888 433 c7 -3 16 -2 19 1 4 3 -2 6 -13 5 -11 0 -14 -3 -6 -6z"/> </g> </svg> 