<svg xmlns="http://www.w3.org/2000/svg" xmlns:xlink="http://www.w3.org/1999/xlink" width="183.07" height="207.795" viewBox="0 0 183.07 207.795">
  <defs>
    <clipPath id="clip-path">
      <path id="Path_204524" data-name="Path 204524" d="M19.957,92.925A19.957,19.957,0,0,0,0,112.882V204.73H138.757V112.882a19.957,19.957,0,0,1,19.957-19.957Z" transform="translate(0 -92.925)" fill="none"/>
    </clipPath>
  </defs>
  <g id="Group_79375" data-name="Group 79375" transform="translate(8547 847.81)" opacity="0.692">
    <g id="Group_79381" data-name="Group 79381" transform="translate(-8546 -847)">
      <g id="Group_79395" data-name="Group 79395">
        <g id="Group_79379" data-name="Group 79379">
          <g id="Group_79396" data-name="Group 79396">
            <path id="Path_204511" data-name="Path 204511" d="M123.539,38.806h28.578a9.912,9.912,0,0,1,9.911,9.911V200.236a9.912,9.912,0,0,1-9.911,9.911H9.911A9.911,9.911,0,0,1,0,200.236V48.717a9.911,9.911,0,0,1,9.912-9.911H123.539Z" transform="translate(0.001 -28.955)" fill="#fff" stroke="#ebeadf" stroke-width="2"/>
            <path id="Path_204512" data-name="Path 204512" d="M123.539,38.806h28.578a9.912,9.912,0,0,1,9.911,9.911V83.5H0V48.717a9.911,9.911,0,0,1,9.912-9.911H123.539Z" transform="translate(0.001 -28.955)" fill="#ff4242"/>
            <line id="Line_1578" data-name="Line 1578" x1="162.03" transform="translate(0 57.3)" fill="none" stroke="#e33b3b" stroke-width="33.013"/>
            <line id="Line_1579" data-name="Line 1579" x1="61.954" transform="translate(50.038 34.994)" fill="none" stroke="#ff8585" stroke-linecap="round" stroke-width="10"/>
            <line id="Line_1580" data-name="Line 1580" y1="15.454" transform="translate(127.575 4.19)" fill="none" stroke="#525252" stroke-linecap="round" stroke-width="10"/>
            <path id="Path_204528" data-name="Path 204528" d="M0,15.454V0" transform="translate(34.455 4.19)" fill="none" stroke="#525252" stroke-linecap="round" stroke-width="10"/>
            <path id="Path_204513" data-name="Path 204513" d="M227.585,306.95H210.262a1.454,1.454,0,0,1-1.454-1.453V288.173a1.454,1.454,0,0,1,1.454-1.454h17.324a1.453,1.453,0,0,1,1.454,1.454V305.5a1.453,1.453,0,0,1-1.454,1.453" transform="translate(-155.799 -213.931)" fill="#e3e1d2"/>
            <path id="Path_204514" data-name="Path 204514" d="M368.882,306.95H351.558a1.453,1.453,0,0,1-1.453-1.453V288.173a1.453,1.453,0,0,1,1.453-1.454h17.324a1.454,1.454,0,0,1,1.454,1.454V305.5a1.454,1.454,0,0,1-1.454,1.453" transform="translate(-261.226 -213.931)" fill="#e3e1d2"/>
            <path id="Path_204515" data-name="Path 204515" d="M510.178,306.95H492.855A1.453,1.453,0,0,1,491.4,305.5V288.173a1.453,1.453,0,0,1,1.454-1.454h17.324a1.453,1.453,0,0,1,1.453,1.454V305.5a1.453,1.453,0,0,1-1.453,1.453" transform="translate(-366.652 -213.931)" fill="#e3e1d2"/>
            <path id="Path_204516" data-name="Path 204516" d="M86.289,450.7H68.966a1.454,1.454,0,0,1-1.454-1.453V431.928a1.454,1.454,0,0,1,1.454-1.454H86.289a1.454,1.454,0,0,1,1.454,1.454v17.324a1.454,1.454,0,0,1-1.454,1.453" transform="translate(-50.373 -321.192)" fill="#e3e1d2"/>
            <path id="Path_204517" data-name="Path 204517" d="M227.585,450.7H210.262a1.454,1.454,0,0,1-1.454-1.453V431.928a1.454,1.454,0,0,1,1.454-1.454h17.324a1.453,1.453,0,0,1,1.454,1.454v17.324a1.453,1.453,0,0,1-1.454,1.453" transform="translate(-155.799 -321.192)" fill="#e3e1d2"/>
            <path id="Path_204518" data-name="Path 204518" d="M368.882,450.7H351.558a1.453,1.453,0,0,1-1.453-1.453V431.928a1.453,1.453,0,0,1,1.453-1.454h17.324a1.454,1.454,0,0,1,1.454,1.454v17.324a1.454,1.454,0,0,1-1.454,1.453" transform="translate(-261.226 -321.192)" fill="#e3e1d2"/>
            <path id="Path_204519" data-name="Path 204519" d="M510.178,450.7H492.855a1.453,1.453,0,0,1-1.454-1.453V431.928a1.453,1.453,0,0,1,1.454-1.454h17.324a1.453,1.453,0,0,1,1.453,1.454v17.324a1.453,1.453,0,0,1-1.453,1.453" transform="translate(-366.652 -321.192)" fill="#e3e1d2"/>
            <path id="Path_204520" data-name="Path 204520" d="M86.289,594.461H68.966a1.454,1.454,0,0,1-1.454-1.454V575.683a1.454,1.454,0,0,1,1.454-1.453H86.289a1.454,1.454,0,0,1,1.454,1.453v17.324a1.454,1.454,0,0,1-1.454,1.454" transform="translate(-50.373 -428.454)" fill="#e3e1d2"/>
            <path id="Path_204521" data-name="Path 204521" d="M227.585,594.461H210.262a1.454,1.454,0,0,1-1.454-1.454V575.683a1.454,1.454,0,0,1,1.454-1.453h17.324a1.453,1.453,0,0,1,1.454,1.453v17.324a1.453,1.453,0,0,1-1.454,1.454" transform="translate(-155.799 -428.454)" fill="#e3e1d2"/>
            <path id="Path_204522" data-name="Path 204522" d="M368.882,594.461H351.558a1.453,1.453,0,0,1-1.453-1.454V575.683a1.453,1.453,0,0,1,1.453-1.453h17.324a1.454,1.454,0,0,1,1.454,1.453v17.324a1.454,1.454,0,0,1-1.454,1.454" transform="translate(-261.226 -428.454)" fill="#ff3939"/>
          </g>
        </g>
      </g>
    </g>
    <g id="Group_79390" data-name="Group 79390" transform="translate(-8522.645 -775.41)">
      <g id="Group_79393" data-name="Group 79393">
        <g id="Group_79391" data-name="Group 79391">
          <path id="Path_204525" data-name="Path 204525" d="M359.017,246.007l-16.7,4.87,4.871-16.915Z" transform="translate(-252.65 -170.424)" fill="#ff3939"/>
          <g id="Group_79394" data-name="Group 79394">
            <g id="Group_79392" data-name="Group 79392" transform="translate(91.533 24.864)">
              <path id="Path_204526" data-name="Path 204526" d="M380.475,8.23a27.5,27.5,0,1,1-38.891-.35,27.495,27.495,0,0,1,38.891.35" transform="translate(-333.353 0)" fill="#ff3939"/>
              <path id="Path_204527" data-name="Path 204527" d="M471.473,80.155q1.068,0,2.163.083.277.021.562.048a2.133,2.133,0,0,1,1.931,1.944v.017a11.461,11.461,0,0,1-.144,3.064l-.007.041A2.134,2.134,0,0,1,474.06,87.1q-.291.025-.572.045-1.022.072-2.015.072t-2.015-.072q-.281-.02-.573-.045a2.134,2.134,0,0,1-1.919-1.747l-.007-.04a11.483,11.483,0,0,1-.144-3.064v-.016a2.133,2.133,0,0,1,1.932-1.945q.285-.026.562-.048,1.093-.082,2.163-.083M465.5,52.379a2.139,2.139,0,0,1,1.95-2.268q.557-.05,1.1-.075,1.548-.068,2.925-.069t2.892.069q.569.026,1.167.081a2.129,2.129,0,0,1,1.918,2.265L476,74.263a2.13,2.13,0,0,1-1.886,1.979q-.347.039-.663.065-1.046.089-1.979.088a24.764,24.764,0,0,1-2.631-.166,2.134,2.134,0,0,1-1.9-1.981Z" transform="translate(-443.604 -41.691)" fill="#fff"/>
            </g>
          </g>
        </g>
      </g>
    </g>
  </g>
</svg>
